<?xml version="1.0" encoding="utf-8"?>
<svg viewBox="80.367 94.718 299.082 299.082" xmlns="http://www.w3.org/2000/svg">
  <ellipse style="fill: rgb(126, 157, 174); paint-order: fill; stroke: rgb(126, 157, 174);" cx="229.908" cy="244.259" rx="149.541" ry="149.541"/>
  <path style="opacity: 1; fill-opacity: 1; fill: rgb(255, 255, 255); transform-origin: 184.734px 243.421px;" d="M 158.709 299.08 C 133.315 270.581 150.809 220.964 171.946 201.786 C 189.964 185.438 219.818 172.076 222.634 176.746 C 227.11 184.167 209.496 189.44 196.259 201.352 C 179.726 219.23 174.179 227.264 197.051 237.347 C 221.563 248.412 222.036 259.232 222.824 272.998 C 224.807 307.657 183.499 323.87 158.709 299.08 Z" id="path1873" transform="matrix(-1, 0, 0, -1, 0, 0)"/>
  <path style="opacity: 1; fill-opacity: 1; fill: rgb(255, 255, 255); transform-origin: 280.297px 243.914px;" d="M 254.273 299.573 C 228.879 271.069 246.368 221.458 267.511 202.279 C 285.528 185.931 315.383 172.569 318.199 177.239 C 322.669 184.66 305.061 189.929 291.818 201.846 C 275.291 219.718 269.744 227.753 292.61 237.84 C 317.127 248.9 317.596 259.726 318.383 273.491 C 320.367 308.151 279.059 324.364 254.273 299.573 Z" id="path1875" transform="matrix(-1, 0, 0, -1, 0.000061035156, 0)"/>
</svg>